<svg width="640" height="764" viewBox="0 0 640 764" fill="none" xmlns="http://www.w3.org/2000/svg">
<path d="M249.4 626.268L266.128 586.316C266.9 584.486 268.151 582.898 269.748 581.718C271.345 580.538 273.231 579.81 275.206 579.61C277.182 579.41 279.175 579.746 280.977 580.582C282.778 581.418 284.321 582.723 285.444 584.36L323.765 640.323C329.634 648.902 321.515 660.106 311.54 657.203L256.511 641.178C255.014 640.742 253.625 639.994 252.437 638.984C251.249 637.974 250.287 636.724 249.616 635.315C248.944 633.908 248.578 632.374 248.541 630.814C248.503 629.255 248.796 627.706 249.4 626.268V626.268Z" fill="#E9EEF2"/>
<path d="M119.848 114.423V80.9509C119.848 79.4133 120.262 77.9042 121.048 76.5826C121.833 75.261 122.96 74.1753 124.31 73.4398C125.66 72.7043 127.183 72.3462 128.72 72.4037C130.256 72.4611 131.749 72.9311 133.04 73.7652L177.055 102.23C183.799 106.591 181.356 117 173.378 117.907L129.362 122.922C128.166 123.057 126.954 122.938 125.807 122.573C124.659 122.208 123.601 121.604 122.704 120.802C121.805 120 121.087 119.017 120.595 117.918C120.103 116.819 119.848 115.628 119.848 114.423V114.423Z" fill="#E9EEF2"/>
<path d="M220.858 492.457V458.985C220.858 457.447 221.273 455.938 222.058 454.616C222.843 453.295 223.97 452.209 225.32 451.474C226.67 450.738 228.193 450.38 229.73 450.437C231.266 450.495 232.759 450.965 234.05 451.799L278.066 480.263C284.81 484.624 282.366 495.034 274.388 495.941L230.373 500.955C229.176 501.091 227.964 500.972 226.817 500.607C225.669 500.242 224.612 499.638 223.714 498.835C222.816 498.033 222.097 497.051 221.605 495.952C221.113 494.853 220.858 493.662 220.858 492.457V492.457Z" fill="#E9EEF2"/>
<path d="M301.285 95.6325L252.014 80.868C249.748 80.1906 247.707 78.915 246.106 77.1748C244.504 75.4346 243.402 73.2947 242.915 70.9799C242.428 68.6657 242.575 66.2632 243.34 64.0253C244.104 61.7873 245.459 59.7973 247.26 58.2646L308.562 6.02339C317.955 -1.97883 332.206 6.20485 330.022 18.3503L317.992 85.3621C317.665 87.1845 316.957 88.9174 315.913 90.4465C314.87 91.9762 313.516 93.2682 311.938 94.2377C310.361 95.2073 308.596 95.8327 306.761 96.0735C304.925 96.3136 303.06 96.1636 301.285 95.6325V95.6325Z" fill="#F2F6F9"/>
<path d="M594.575 615.793L603.774 595.833C604.198 594.916 604.857 594.131 605.692 593.559C606.526 592.987 607.494 592.65 608.504 592.584C609.508 592.518 610.518 592.725 611.414 593.183C612.315 593.64 613.077 594.332 613.615 595.186L632.021 624.261C632.638 625.239 632.94 626.384 632.886 627.54C632.832 628.696 632.42 629.807 631.707 630.719C630.993 631.632 630.019 632.302 628.912 632.638C627.805 632.974 626.62 632.96 625.519 632.596L597.907 623.481C597.157 623.234 596.462 622.83 595.881 622.296C595.294 621.763 594.829 621.111 594.514 620.385C594.2 619.659 594.042 618.874 594.054 618.083C594.066 617.291 594.242 616.511 594.575 615.793V615.793Z" fill="#F2F6F9"/>
<path d="M632.506 167.941L639.305 187.756C639.613 188.664 639.674 189.639 639.48 190.579C639.287 191.519 638.839 192.389 638.192 193.097C637.545 193.806 636.716 194.328 635.797 194.607C634.883 194.887 633.903 194.915 632.972 194.688L601.138 186.776C600.068 186.509 599.106 185.918 598.386 185.084C597.661 184.25 597.219 183.213 597.104 182.115C596.995 181.018 597.231 179.913 597.769 178.952C598.314 177.991 599.136 177.221 600.134 176.748L625.169 164.844C625.847 164.525 626.591 164.352 627.341 164.337C628.091 164.321 628.835 164.465 629.53 164.757C630.22 165.049 630.843 165.483 631.357 166.032C631.871 166.581 632.258 167.231 632.506 167.941V167.941Z" fill="#E9EEF2"/>
<path d="M540.289 74.6659L564.434 97.2027C565.535 98.2427 566.334 99.5585 566.751 101.013C567.174 102.468 567.193 104.008 566.818 105.473C566.436 106.939 565.674 108.276 564.604 109.346C563.533 110.415 562.19 111.179 560.727 111.556L510.566 124.143C502.878 126.072 497.017 117.302 501.729 110.939L527.738 75.8151C528.446 74.8616 529.353 74.0684 530.387 73.487C531.428 72.9056 532.571 72.5491 533.756 72.4407C534.942 72.3323 536.133 72.4744 537.258 72.8578C538.383 73.2412 539.418 73.8572 540.289 74.6659V74.6659Z" fill="#E9EEF2"/>
<path d="M626.015 289.612L594.696 309.887C592.73 311.154 590.486 311.92 588.157 312.118C585.829 312.317 583.488 311.94 581.341 311.022C579.187 310.105 577.3 308.673 575.831 306.855C574.361 305.036 573.363 302.885 572.921 300.59L564.084 254.543C561.713 242.216 575.262 233.046 585.823 239.827L625.979 265.593C627.987 266.885 629.644 268.66 630.794 270.756C631.937 272.853 632.542 275.203 632.548 277.593C632.548 279.983 631.955 282.335 630.812 284.435C629.669 286.535 628.023 288.315 626.015 289.612V289.612Z" fill="#F2F6F9"/>
<path d="M135.517 687.412C125.528 704.713 131.456 726.84 148.759 736.829C166.061 746.819 188.187 740.89 198.176 723.588C208.166 706.286 202.238 684.16 184.935 674.17C167.632 664.18 145.506 670.11 135.517 687.412Z" fill="#E9EEF2"/>
<path d="M178.44 36.554C188.418 36.554 196.507 28.4653 196.507 18.487C196.507 8.50894 188.418 0.420044 178.44 0.420044C168.462 0.420044 160.373 8.50894 160.373 18.487C160.373 28.4653 168.462 36.554 178.44 36.554Z" fill="#E9EEF2"/>
<path d="M119.939 471.178C128.674 471.178 135.756 464.096 135.756 455.361C135.756 446.626 128.674 439.544 119.939 439.544C111.204 439.544 104.122 446.626 104.122 455.361C104.122 464.096 111.204 471.178 119.939 471.178Z" fill="#E9EEF2"/>
<path d="M396.72 559.003C409.665 559.003 420.158 548.509 420.158 535.565C420.158 522.62 409.665 512.127 396.72 512.127C383.776 512.127 373.282 522.62 373.282 535.565C373.282 548.509 383.776 559.003 396.72 559.003Z" fill="#F2F6F9"/>
<path d="M600.429 384.055C600.429 388.629 600.078 393.197 599.383 397.719H5.96041C2.45226 386.042 0.675198 373.915 0.686085 361.724C0.686085 292.831 56.5202 236.985 125.425 236.985C127.272 236.985 129.107 237.025 130.929 237.106C137.839 237.392 144.663 235.496 150.433 231.685C156.204 227.874 160.628 222.342 163.077 215.875C182.433 165.303 195.135 129.381 252.511 129.381C275.33 129.368 297.778 135.163 317.74 146.22C337.702 157.276 354.522 173.231 366.617 192.582C370.038 198.115 375.028 202.505 380.952 205.193C386.877 207.88 393.467 208.744 399.884 207.673C426.361 203.087 453.607 208.03 476.785 221.625C499.963 235.221 517.576 256.589 526.492 281.937C528.028 286.347 530.484 290.381 533.69 293.776C536.895 297.169 540.785 299.847 545.103 301.631C561.464 308.328 575.461 319.742 585.314 334.421C595.167 349.099 600.429 366.377 600.429 384.055Z" fill="#D2E8F9"/>
<path d="M407.366 397.724H259.824L187.338 361.73L338.896 356.425L407.366 397.724Z" fill="#9AC3E8"/>
<path d="M322.311 273.778H181.29V315.077H322.311V273.778Z" fill="#F7F9FC"/>
<path d="M322.311 222.577H181.29V263.876H322.311V222.577Z" fill="#F7F9FC"/>
<path d="M328.36 329.545H187.338V361.724H328.36V329.545Z" fill="#B5D6F4"/>
<path d="M251.803 302.43C256.223 302.43 259.806 298.847 259.806 294.428C259.806 290.008 256.223 286.425 251.803 286.425C247.384 286.425 243.801 290.008 243.801 294.428C243.801 298.847 247.384 302.43 251.803 302.43Z" fill="#B5D6F4"/>
<path d="M290.048 291.96H252.883C250.898 291.96 249.288 293.949 249.288 296.402V354.051C249.288 356.505 250.898 358.494 252.883 358.494H290.048C292.034 358.494 293.644 356.505 293.644 354.051V296.402C293.644 293.949 292.034 291.96 290.048 291.96Z" fill="#FFC774"/>
<path d="M252.144 323.221H290.849" stroke="white" stroke-width="2"/>
<path d="M252.144 332.593H290.849" stroke="white" stroke-width="2"/>
<path d="M252.144 304.477H290.849" stroke="white" stroke-width="2"/>
<path d="M252.144 313.849H290.849" stroke="white" stroke-width="2"/>
<path d="M252.144 341.964H270.317" stroke="white" stroke-width="2"/>
<path d="M285.358 351.314H290.862" stroke="white" stroke-width="2"/>
<path d="M252.883 292.356H290.048C290.916 292.356 291.748 292.783 292.363 293.542C292.977 294.3 293.322 295.329 293.322 296.402V299.672H249.609V296.404C249.609 295.872 249.693 295.346 249.857 294.855C250.023 294.364 250.264 293.918 250.568 293.542C250.871 293.166 251.233 292.868 251.63 292.665C252.027 292.461 252.453 292.356 252.883 292.356V292.356Z" fill="#EF6E45"/>
<path d="M303.96 290.145H266.794C264.809 290.145 263.199 292.134 263.199 294.588V352.236C263.199 354.69 264.809 356.679 266.794 356.679H303.96C305.945 356.679 307.555 354.69 307.555 352.236V294.588C307.555 292.134 305.945 290.145 303.96 290.145Z" fill="#FFC774"/>
<path d="M266.056 321.406H304.76" stroke="white" stroke-width="2"/>
<path d="M266.056 330.778H304.76" stroke="white" stroke-width="2"/>
<path d="M266.056 302.662H304.76" stroke="white" stroke-width="2"/>
<path d="M266.056 312.034H304.76" stroke="white" stroke-width="2"/>
<path d="M266.056 340.15H284.229" stroke="white" stroke-width="2"/>
<path d="M299.27 349.5H304.774" stroke="white" stroke-width="2"/>
<path d="M266.795 290.542H303.959C304.828 290.542 305.66 290.968 306.275 291.727C306.888 292.486 307.233 293.515 307.233 294.588V297.857H263.521V294.589C263.521 294.058 263.605 293.531 263.769 293.04C263.934 292.549 264.176 292.103 264.479 291.727C264.783 291.352 265.144 291.053 265.541 290.85C265.939 290.647 266.364 290.542 266.795 290.542V290.542Z" fill="#EF6E45"/>
<path d="M317.872 288.331H280.706C278.721 288.331 277.111 290.32 277.111 292.773V350.422C277.111 352.875 278.721 354.865 280.706 354.865H317.872C319.857 354.865 321.467 352.875 321.467 350.422V292.773C321.467 290.32 319.857 288.331 317.872 288.331Z" fill="#FFC774"/>
<path d="M279.967 319.592H318.672" stroke="white" stroke-width="2"/>
<path d="M279.967 328.963H318.672" stroke="white" stroke-width="2"/>
<path d="M279.967 300.848H318.672" stroke="white" stroke-width="2"/>
<path d="M279.967 310.22H318.672" stroke="white" stroke-width="2"/>
<path d="M279.967 338.335H298.14" stroke="white" stroke-width="2"/>
<path d="M313.182 347.685H318.686" stroke="white" stroke-width="2"/>
<path d="M280.706 288.727H317.87C318.739 288.727 319.571 289.154 320.186 289.912C320.8 290.671 321.145 291.7 321.145 292.773V296.043H277.432V292.774C277.432 292.243 277.516 291.717 277.68 291.226C277.845 290.735 278.087 290.289 278.39 289.913C278.694 289.537 279.055 289.239 279.453 289.035C279.85 288.832 280.276 288.727 280.706 288.727V288.727Z" fill="#EF6E45"/>
<path d="M331.783 286.516H294.618C292.632 286.516 291.022 288.505 291.022 290.959V348.607C291.022 351.061 292.632 353.05 294.618 353.05H331.783C333.768 353.05 335.378 351.061 335.378 348.607V290.959C335.378 288.505 333.768 286.516 331.783 286.516Z" fill="#F2F6F9"/>
<path d="M331.783 286.516H294.618C292.632 286.516 291.022 288.505 291.022 290.959V348.607C291.022 351.061 292.632 353.05 294.618 353.05H331.783C333.768 353.05 335.378 351.061 335.378 348.607V290.959C335.378 288.505 333.768 286.516 331.783 286.516Z" fill="#FFC774"/>
<path d="M293.879 317.777H332.583" stroke="white" stroke-width="2"/>
<path d="M293.879 327.149H332.583" stroke="white" stroke-width="2"/>
<path d="M293.88 299.033H332.584" stroke="white" stroke-width="2"/>
<path d="M293.879 308.405H332.583" stroke="white" stroke-width="2"/>
<path d="M293.879 336.521H312.052" stroke="white" stroke-width="2"/>
<path d="M327.093 345.871H332.597" stroke="white" stroke-width="2"/>
<path d="M294.617 286.913H331.782C332.651 286.913 333.483 287.339 334.097 288.098C334.711 288.857 335.056 289.886 335.056 290.959V294.228H291.343V290.96C291.343 290.428 291.428 289.902 291.592 289.411C291.757 288.92 291.998 288.474 292.302 288.098C292.606 287.722 292.967 287.424 293.364 287.221C293.761 287.018 294.187 286.913 294.617 286.913V286.913Z" fill="#EF6E45"/>
<path d="M345.695 284.701H308.53C306.545 284.701 304.935 286.691 304.935 289.144V346.793C304.935 349.246 306.545 351.235 308.53 351.235H345.695C347.681 351.235 349.291 349.246 349.291 346.793V289.144C349.291 286.691 347.681 284.701 345.695 284.701Z" fill="#FFC774"/>
<path d="M307.791 315.962H346.495" stroke="white" stroke-width="2"/>
<path d="M307.791 325.334H346.495" stroke="white" stroke-width="2"/>
<path d="M307.791 297.219H346.495" stroke="white" stroke-width="2"/>
<path d="M307.791 306.59H346.495" stroke="white" stroke-width="2"/>
<path d="M307.791 334.706H325.963" stroke="white" stroke-width="2"/>
<path d="M341.004 344.056H346.509" stroke="white" stroke-width="2"/>
<path d="M308.529 285.098H345.694C346.563 285.098 347.395 285.525 348.01 286.283C348.623 287.042 348.968 288.071 348.968 289.144V292.414H305.255V289.145C305.255 288.614 305.34 288.088 305.504 287.597C305.669 287.106 305.91 286.659 306.214 286.284C306.518 285.908 306.879 285.61 307.276 285.406C307.674 285.203 308.099 285.098 308.529 285.098Z" fill="#EF6E45"/>
<path d="M280.975 298.613H243.81C241.824 298.613 240.214 300.602 240.214 303.056V360.704C240.214 363.158 241.824 365.147 243.81 365.147H280.975C282.96 365.147 284.57 363.158 284.57 360.704V303.056C284.57 300.602 282.96 298.613 280.975 298.613Z" fill="#FFC774"/>
<path d="M243.071 329.874H281.776" stroke="white" stroke-width="2"/>
<path d="M243.071 339.246H281.776" stroke="white" stroke-width="2"/>
<path d="M243.071 311.13H281.776" stroke="white" stroke-width="2"/>
<path d="M243.071 320.502H281.776" stroke="white" stroke-width="2"/>
<path d="M243.071 348.618H261.244" stroke="white" stroke-width="2"/>
<path d="M276.285 357.968H281.789" stroke="white" stroke-width="2"/>
<path d="M243.809 299.01H280.974C281.843 299.01 282.675 299.436 283.289 300.195C283.903 300.954 284.248 301.983 284.248 303.056V306.325H240.535V303.057C240.535 302.526 240.62 301.999 240.784 301.508C240.949 301.017 241.19 300.571 241.494 300.195C241.797 299.82 242.159 299.521 242.556 299.318C242.953 299.115 243.379 299.01 243.809 299.01V299.01Z" fill="#EF6E45"/>
<path d="M288.838 296.799H251.673C249.688 296.799 248.078 298.788 248.078 301.241V358.89C248.078 361.343 249.688 363.333 251.673 363.333H288.838C290.824 363.333 292.434 361.343 292.434 358.89V301.241C292.434 298.788 290.824 296.799 288.838 296.799Z" fill="#FFC774"/>
<path d="M250.935 328.059H289.639" stroke="white" stroke-width="2"/>
<path d="M250.935 337.431H289.639" stroke="white" stroke-width="2"/>
<path d="M250.935 309.316H289.639" stroke="white" stroke-width="2"/>
<path d="M250.935 318.688H289.639" stroke="white" stroke-width="2"/>
<path d="M250.935 346.803H269.108" stroke="white" stroke-width="2"/>
<path d="M284.148 356.153H289.653" stroke="white" stroke-width="2"/>
<path d="M251.673 297.195H288.838C289.706 297.195 290.539 297.622 291.153 298.38C291.767 299.139 292.112 300.168 292.112 301.241V304.511H248.399V301.242C248.399 300.711 248.483 300.185 248.648 299.694C248.813 299.203 249.054 298.757 249.358 298.381C249.661 298.005 250.023 297.707 250.42 297.503C250.817 297.3 251.243 297.195 251.673 297.195V297.195Z" fill="#EF6E45"/>
<path d="M296.701 294.984H259.536C257.55 294.984 255.94 296.973 255.94 299.427V357.075C255.94 359.529 257.55 361.518 259.536 361.518H296.701C298.686 361.518 300.296 359.529 300.296 357.075V299.427C300.296 296.973 298.686 294.984 296.701 294.984Z" fill="#FFC774"/>
<path d="M258.796 326.245H297.501" stroke="white" stroke-width="2"/>
<path d="M258.796 335.617H297.501" stroke="white" stroke-width="2"/>
<path d="M258.797 307.501H297.501" stroke="white" stroke-width="2"/>
<path d="M258.796 316.873H297.501" stroke="white" stroke-width="2"/>
<path d="M258.796 344.989H276.969" stroke="white" stroke-width="2"/>
<path d="M292.01 354.339H297.514" stroke="white" stroke-width="2"/>
<path d="M259.535 295.381H296.7C297.569 295.381 298.401 295.807 299.015 296.566C299.629 297.325 299.974 298.354 299.974 299.427V302.696H256.261V299.428C256.261 298.896 256.346 298.37 256.51 297.879C256.675 297.388 256.916 296.942 257.22 296.566C257.524 296.19 257.885 295.892 258.282 295.689C258.679 295.485 259.105 295.381 259.535 295.381V295.381Z" fill="#EF6E45"/>
<path d="M304.564 293.169H267.399C265.414 293.169 263.804 295.158 263.804 297.612V355.261C263.804 357.714 265.414 359.703 267.399 359.703H304.564C306.55 359.703 308.16 357.714 308.16 355.261V297.612C308.16 295.158 306.55 293.169 304.564 293.169Z" fill="#F2F6F9"/>
<path d="M304.564 293.169H267.399C265.414 293.169 263.804 295.158 263.804 297.612V355.261C263.804 357.714 265.414 359.703 267.399 359.703H304.564C306.55 359.703 308.16 357.714 308.16 355.261V297.612C308.16 295.158 306.55 293.169 304.564 293.169Z" fill="#FFC774"/>
<path d="M266.66 324.43H305.365" stroke="white" stroke-width="2"/>
<path d="M266.66 333.802H305.365" stroke="white" stroke-width="2"/>
<path d="M266.661 305.687H305.365" stroke="white" stroke-width="2"/>
<path d="M266.66 315.058H305.365" stroke="white" stroke-width="2"/>
<path d="M266.66 343.174H284.833" stroke="white" stroke-width="2"/>
<path d="M299.874 352.524H305.378" stroke="white" stroke-width="2"/>
<path d="M267.399 293.566H304.563C305.432 293.566 306.264 293.992 306.879 294.751C307.492 295.51 307.837 296.539 307.837 297.612V300.882H264.125V297.613C264.125 297.082 264.209 296.556 264.373 296.065C264.538 295.574 264.78 295.127 265.083 294.752C265.387 294.376 265.748 294.078 266.145 293.874C266.543 293.671 266.968 293.566 267.399 293.566V293.566Z" fill="#EF6E45"/>
<path d="M312.427 291.355H275.262C273.276 291.355 271.667 293.344 271.667 295.798V353.446C271.667 355.9 273.276 357.889 275.262 357.889H312.427C314.412 357.889 316.022 355.9 316.022 353.446V295.798C316.022 293.344 314.412 291.355 312.427 291.355Z" fill="#FFC774"/>
<path d="M274.523 322.616H313.227" stroke="white" stroke-width="2"/>
<path d="M274.523 331.988H313.227" stroke="white" stroke-width="2"/>
<path d="M274.524 303.872H313.228" stroke="white" stroke-width="2"/>
<path d="M274.523 313.244H313.227" stroke="white" stroke-width="2"/>
<path d="M274.523 341.36H292.696" stroke="white" stroke-width="2"/>
<path d="M307.737 350.71H313.241" stroke="white" stroke-width="2"/>
<path d="M275.262 291.752H312.427C313.295 291.752 314.127 292.178 314.742 292.937C315.356 293.695 315.701 294.725 315.701 295.798V299.067H271.988V295.799C271.988 295.267 272.072 294.741 272.236 294.25C272.402 293.759 272.643 293.313 272.946 292.937C273.25 292.561 273.612 292.263 274.009 292.06C274.406 291.856 274.832 291.752 275.262 291.752Z" fill="#EF6E45"/>
<path d="M380.958 324.985H239.937V366.284H380.958V324.985Z" fill="#F7F9FC"/>
<path d="M251.803 251.229C256.223 251.229 259.806 247.646 259.806 243.227C259.806 238.807 256.223 235.224 251.803 235.224C247.384 235.224 243.801 238.807 243.801 243.227C243.801 247.646 247.384 251.229 251.803 251.229Z" fill="#B5D6F4"/>
<path d="M454.266 764C533.163 764 597.12 761.877 597.12 759.264C597.12 756.651 533.163 754.528 454.266 754.528C375.369 754.528 311.412 756.651 311.412 759.264C311.412 761.877 375.369 764 454.266 764Z" fill="#E4EFF7"/>
<path d="M455.766 547.123L431.391 584.963L496.019 550.952L480.323 533.95L455.766 547.123Z" fill="#3361C2"/>
<path d="M382.361 481.769H482.186" stroke="#1D2026" stroke-width="7"/>
<path d="M412.368 568.832H512.193" stroke="#1D2026" stroke-width="7"/>
<path d="M442.369 655.9H542.194" stroke="#1D2026" stroke-width="7"/>
<path d="M472.375 742.969H572.2" stroke="#1D2026" stroke-width="7"/>
<path d="M344.642 371.891L479.754 759.264" stroke="#1D2026" stroke-width="7"/>
<path d="M443.112 371.891L578.225 759.264" stroke="#1D2026" stroke-width="7"/>
<path d="M352.354 394.7H452.179" stroke="#1D2026" stroke-width="7"/>
<path d="M391.96 371.867C391.96 371.867 372.163 380.299 367.766 388.452C363.369 396.606 364.137 404.892 369.671 410.076C372.351 412.58 399.43 412.356 399.43 412.356L406.029 384.26L391.96 371.867Z" fill="#E1E2B7"/>
<path d="M353.086 394.7H379.282" stroke="#1D2026" stroke-width="7"/>
<path d="M514.044 634.392L471.952 646.598L544.323 661.822L543.029 638.729L514.044 634.392Z" fill="#3361C2"/>
<path d="M373.095 405.364C373.095 405.364 380.904 387.502 384.684 388.337C388.465 389.172 382.458 406.392 382.458 406.392C382.458 406.392 389.844 386.898 393.461 388.289C396.267 389.378 391.779 406.434 391.779 406.434C391.779 406.434 397.181 391.549 400.344 392.208C403.507 392.868 395.723 409.555 395.723 409.555" fill="#E1E2B7"/>
<path d="M373.095 405.364C373.095 405.364 380.904 387.502 384.684 388.337C388.465 389.172 382.458 406.392 382.458 406.392C382.458 406.392 389.844 386.898 393.461 388.289C396.267 389.378 391.779 406.434 391.779 406.434C391.779 406.434 397.181 391.549 400.344 392.208C403.507 392.868 395.723 409.555 395.723 409.555" stroke="white" stroke-width="3"/>
<path d="M418.362 378.061L386.952 408.303C381.823 413.244 378.603 419.838 377.864 426.921C377.125 434.004 378.913 441.121 382.912 447.014L447.238 551.654L490.183 528.603L440.845 441.28L482.168 415.459L508.721 633.636L547.196 641.033L548.799 391.501C548.92 377.278 546.253 363.17 540.936 349.977L533.545 331.608L458.918 329.757L418.362 378.061Z" fill="#151E24"/>
<path d="M327.665 240.723C327.386 240.723 316.777 243.644 316.656 238.938C316.535 234.232 328.844 231.583 335.171 231.232C341.498 230.882 348.665 231.771 351.054 227.446C354.798 220.672 349.131 215.815 348.296 210.51C347.461 205.206 348.756 202.133 352.107 202.32C355.458 202.508 355.645 213.879 362.667 218.422C370.053 223.2 375.369 232.376 375.369 232.376L394.543 244.884C394.543 244.884 380.771 264.39 380.208 264.481C379.646 264.572 364.204 251.731 364.204 251.731C364.204 251.731 362.994 255.735 343.27 260.852" fill="#E1E2B7"/>
<path d="M464.518 273.881L472.055 324.422C472.823 329.544 472.188 334.777 470.222 339.568C468.256 344.359 465.039 348.531 460.895 351.641L405.702 393.109L384.351 372.266L426.086 323.061C426.086 323.061 405.715 255.995 441.147 237.499C473.234 220.744 488.144 233.64 497.041 246.892C503.985 257.223 510.657 281.078 515.985 292.988C521.314 304.898 533.611 331.65 533.611 331.65L462.565 337.094" fill="#FFC774"/>
<mask id="mask0" mask-type="alpha" maskUnits="userSpaceOnUse" x="384" y="229" width="150" height="165">
<path fill-rule="evenodd" clip-rule="evenodd" d="M464.518 273.881L472.055 324.422C472.823 329.544 472.188 334.777 470.222 339.568C468.256 344.359 465.039 348.531 460.895 351.641L405.702 393.109L384.351 372.266L426.086 323.061C426.086 323.061 405.715 255.995 441.147 237.499C473.234 220.744 488.144 233.64 497.041 246.892C503.985 257.223 510.657 281.078 515.985 292.988C521.314 304.898 533.611 331.65 533.611 331.65L462.565 337.094" fill="white"/>
</mask>
<g mask="url(#mask0)">
<path d="M525.052 325.898C535.075 325.898 543.198 317.774 543.198 307.752C543.198 297.731 535.075 289.607 525.052 289.607C515.03 289.607 506.907 297.731 506.907 307.752C506.907 317.774 515.03 325.898 525.052 325.898Z" fill="#EF6E45"/>
<path d="M415.017 290.75C425.039 290.75 433.162 282.626 433.162 272.604C433.162 262.583 425.039 254.459 415.017 254.459C404.995 254.459 396.871 262.583 396.871 272.604C396.871 282.626 404.995 290.75 415.017 290.75Z" fill="#EF6E45"/>
<path d="M476.228 246.578C486.251 246.578 494.374 238.454 494.374 228.432C494.374 218.41 486.251 210.286 476.228 210.286C466.206 210.286 458.083 218.41 458.083 228.432C458.083 238.454 466.206 246.578 476.228 246.578Z" fill="#EF6E45"/>
<path d="M464.488 357.018C474.51 357.018 482.634 348.893 482.634 338.872C482.634 328.85 474.51 320.727 464.488 320.727C454.465 320.727 446.342 328.85 446.342 338.872C446.342 348.893 454.465 357.018 464.488 357.018Z" fill="#EF6E45"/>
<path d="M404.499 366.091C414.52 366.091 422.644 357.966 422.644 347.945C422.644 337.923 414.52 329.799 404.499 329.799C394.477 329.799 386.353 337.923 386.353 347.945C386.353 357.966 394.477 366.091 404.499 366.091Z" fill="#EF6E45"/>
<path d="M471.746 298.117C481.769 298.117 489.892 289.993 489.892 279.972C489.892 269.95 481.769 261.826 471.746 261.826C461.724 261.826 453.601 269.95 453.601 279.972C453.601 289.993 461.724 298.117 471.746 298.117Z" fill="#EF6E45"/>
</g>
<path d="M335.168 208.81L301.534 224.623C299.737 225.467 299.127 227.952 300.17 230.173L324.698 282.343C325.742 284.564 328.045 285.679 329.842 284.834L363.476 269.021C365.272 268.177 365.883 265.692 364.839 263.471L340.311 211.301C339.268 209.08 336.964 207.965 335.168 208.81Z" fill="#FFC774"/>
<path d="M314.166 253.227L349.192 236.76" stroke="white" stroke-width="2"/>
<path d="M318.153 261.708L353.18 245.241" stroke="white" stroke-width="2"/>
<path d="M306.192 236.264L341.218 219.797" stroke="white" stroke-width="2"/>
<path d="M310.178 244.746L345.205 228.278" stroke="white" stroke-width="2"/>
<path d="M322.14 270.19L338.586 262.458" stroke="white" stroke-width="2"/>
<path d="M356.176 264.52L361.157 262.178" stroke="white" stroke-width="2"/>
<path d="M301.703 224.982L335.336 209.169C336.122 208.8 337.056 208.831 337.935 209.257C338.814 209.682 339.564 210.467 340.02 211.438L341.411 214.396L301.852 232.995L300.462 230.037C300.236 229.556 300.088 229.044 300.028 228.53C299.968 228.015 299.997 227.509 300.112 227.04C300.227 226.57 300.427 226.147 300.7 225.794C300.973 225.44 301.313 225.165 301.703 224.982V224.982Z" fill="#EF6E45"/>
<path d="M388.791 229.055L368.443 263.483L436.804 317.581L445.115 262.739L388.791 229.055Z" fill="#FFC774"/>
<mask id="mask1" mask-type="alpha" maskUnits="userSpaceOnUse" x="368" y="229" width="78" height="89">
<path fill-rule="evenodd" clip-rule="evenodd" d="M388.791 229.055L368.443 263.483L436.804 317.581L445.115 262.739L388.791 229.055Z" fill="white"/>
</mask>
<g mask="url(#mask1)">
<path d="M415.017 290.75C425.039 290.75 433.162 282.626 433.162 272.604C433.162 262.583 425.039 254.459 415.017 254.459C404.995 254.459 396.871 262.583 396.871 272.604C396.871 282.626 404.995 290.75 415.017 290.75Z" fill="#EF6E45"/>
<path d="M383.105 246.517C393.126 246.517 401.251 238.393 401.251 228.371C401.251 218.35 393.126 210.226 383.105 210.226C373.083 210.226 364.959 218.35 364.959 228.371C364.959 238.393 373.083 246.517 383.105 246.517Z" fill="#EF6E45"/>
</g>
<path d="M422.639 308.218C419.929 293.218 417.8 269.919 426.098 253.176" stroke="white" stroke-width="3"/>
<path fill-rule="evenodd" clip-rule="evenodd" d="M452.392 187.332L465.662 234.166Z" fill="#E1E2B7"/>
<path d="M452.392 187.332L465.662 234.166" stroke="#E1E2B7" stroke-width="40" stroke-linecap="round" stroke-linejoin="round"/>
<path d="M453.631 223.351L451.139 224.047C448.236 224.849 445.193 225.002 442.224 224.496C439.254 223.988 436.437 222.833 433.966 221.112C431.495 219.391 429.433 217.147 427.928 214.538C426.423 211.93 425.511 209.023 425.257 206.022L423.999 191.155C423.593 186.355 424.89 181.565 427.665 177.627C430.439 173.69 434.512 170.855 439.169 169.622V169.622C441.77 168.932 444.486 168.762 447.153 169.121C449.821 169.48 452.391 170.361 454.714 171.714C457.043 173.066 459.081 174.864 460.714 177.004C462.347 179.144 463.539 181.585 464.228 184.187L467.978 198.359C469.357 203.574 468.626 209.124 465.94 213.804C463.254 218.483 458.833 221.914 453.631 223.351V223.351Z" fill="#E1E2B7"/>
<path d="M561.017 195.528C563.763 227.984 532.207 230.736 532.207 230.736C532.207 230.736 549.67 266.356 510.59 263.399C471.51 260.441 460.847 232.551 462.359 216.601C462.964 210.25 466.254 205.326 469.974 200.578C448.556 197.27 448.883 182.517 448.883 182.517C448.883 182.517 414.545 195.915 414.823 169.489C415.102 143.063 442.187 134.595 458.191 134.873C461.567 134.944 464.905 135.525 468.105 136.597C478.388 139.966 486.39 146.057 500.066 146.275C537.845 146.879 541.474 168.188 541.474 168.188C541.474 168.188 559.154 173.566 561.017 195.528Z" fill="#EF6E45"/>
<path d="M424.35 191.409L419.517 207.698L425.904 207.637" fill="#E1E2B7"/>
<path d="M430.677 197.397C432.33 197.397 433.671 196.056 433.671 194.403C433.671 192.749 432.33 191.409 430.677 191.409C429.023 191.409 427.683 192.749 427.683 194.403C427.683 196.056 429.023 197.397 430.677 197.397Z" fill="white"/>
<path d="M434.185 210.22C434.185 210.22 437.155 209.839 436.834 206.79L434.185 210.22Z" fill="#3361C2"/>
<path d="M434.185 210.22C434.185 210.22 437.155 209.839 436.834 206.79" stroke="white" stroke-width="3" stroke-linecap="square"/>
<path d="M468.389 180.495L468.262 180.443C463.599 178.478 458.228 180.664 456.262 185.328L452.948 193.18C450.982 197.844 453.171 203.218 457.835 205.184L457.956 205.236C462.619 207.202 467.996 205.016 469.962 200.352L473.271 192.499C475.236 187.835 473.047 182.461 468.389 180.495Z" fill="#E1E2B7"/>
<path d="M467.409 184.483L462.093 197.076" stroke="white" stroke-width="3" stroke-linecap="square"/>
<path d="M482.187 415.501C488.108 411.965 493.558 407.683 498.391 402.763C507.79 393.085 510.397 383.033 510.397 383.033" stroke="white" stroke-width="3"/>
<path d="M310.444 353.637C314.864 353.637 318.446 350.054 318.446 345.634C318.446 341.215 314.864 337.632 310.444 337.632C306.024 337.632 302.442 341.215 302.442 345.634C302.442 350.054 306.024 353.637 310.444 353.637Z" fill="#B5D6F4"/>
<path d="M464.519 273.881L472.055 324.422C472.648 328.423 472.394 332.504 471.305 336.398" stroke="white" stroke-width="3"/>
<path d="M368.613 265.413L422.632 308.164L426.056 323.067L384.327 372.272" stroke="white" stroke-width="3"/>
</svg>
