<svg width="680" height="469" viewBox="0 0 680 469" fill="none" xmlns="http://www.w3.org/2000/svg">
<path d="M616.5 321C608 341 559 396.5 559 396.5H95.9998C95.9998 396.5 50.5 357.5 44.9998 345.5C39.4997 333.5 33 315 38.9998 295C44.9997 275 55.5 249 61.4998 240.5C67.4997 232 71.5 205.5 69.9998 185.5C68.4996 165.5 54 148.5 38.9998 141.5C23.9997 134.5 7.99963 113.5 4.49984 100C1.00005 86.5003 -3.56181 65.5 10.4999 44.452C24.5616 23.404 28.9997 15.5 68.4998 3.99993C108 -7.50013 145 10.3804 157.5 15C170 19.6196 206 40 214.5 45C223 50 243.011 67.2581 248 71C258 78.5 310.5 126 321.5 134.5C332.5 143 355.5 143 367 134.5C378.5 126 442 82 447.5 78.5C453 75 477.5 57.4999 507.5 58.9999C537.5 60.4999 553.5 73.5 562 78.5C570.5 83.5 579 96 579 111.5C579 127 556 178 556 178C556 178 550.5 202.25 564 212C577.5 221.75 586 213 610.5 242C635 271 625 301 616.5 321Z" fill="#E8F3FD" fill-opacity="0.5"/>
<path d="M213 405.5C213 404 224.5 396 224.5 396H131C131 396 123.5 401 123.5 402.5C123.5 404 128.5 410.5 131 411.5C133.5 412.5 143.5 418 141.5 422C139.5 426 121 423.5 119 423.5C117 423.5 104.5 424 102.5 425C100.5 426 80.9999 441 81.4999 443.5C81.9999 446 88.9999 453 92 455C95.0001 457 105.5 459 113 456C120.5 453 126.5 450 147.5 446C168.5 442 174.5 425 183.5 423.5C192.5 422 231.5 411.5 234 410C236.5 408.5 244.5 404.5 243.5 403C242.5 401.5 213 407 213 405.5Z" fill="#91ACC4" fill-opacity="0.5"/>
<ellipse cx="482" cy="415.5" rx="125" ry="2.5" fill="#E8F3FD" fill-opacity="0.5"/>
<path d="M372.998 103.457C372.974 103.181 372.732 102.978 372.456 103.002C372.181 103.026 371.978 103.268 372.002 103.543L372.998 103.457ZM303.5 131C303.406 131.491 303.406 131.491 303.406 131.491C303.407 131.491 303.407 131.491 303.408 131.491C303.409 131.492 303.41 131.492 303.412 131.492C303.417 131.493 303.423 131.494 303.431 131.496C303.448 131.499 303.473 131.504 303.506 131.51C303.571 131.522 303.668 131.54 303.794 131.563C304.048 131.61 304.421 131.678 304.901 131.762C305.859 131.93 307.243 132.165 308.946 132.431C312.351 132.964 317.033 133.621 322.138 134.122C327.243 134.624 332.779 134.969 337.892 134.875C342.993 134.781 347.718 134.249 351.173 132.969L350.826 132.031C347.532 133.251 342.944 133.782 337.873 133.875C332.814 133.968 327.319 133.626 322.236 133.127C317.154 132.628 312.492 131.974 309.1 131.443C307.405 131.178 306.027 130.944 305.074 130.777C304.597 130.693 304.226 130.626 303.975 130.58C303.85 130.557 303.754 130.539 303.69 130.527C303.658 130.521 303.634 130.516 303.618 130.513C303.609 130.512 303.603 130.511 303.599 130.51C303.597 130.509 303.596 130.509 303.595 130.509C303.595 130.509 303.594 130.509 303.594 130.509C303.594 130.509 303.594 130.509 303.5 131ZM351.173 132.969C364.828 127.912 374.022 115.236 372.998 103.457L372.002 103.543C372.977 114.764 364.172 127.088 350.826 132.031L351.173 132.969Z" fill="#042537"/>
<path d="M366.554 96.896C366.491 96.6271 366.222 96.4601 365.953 96.523C365.684 96.5859 365.517 96.8548 365.58 97.1237L366.554 96.896ZM307.563 130.686C307.54 131.186 307.54 131.186 307.54 131.186C307.541 131.186 307.541 131.186 307.542 131.186C307.543 131.186 307.544 131.186 307.546 131.186C307.55 131.186 307.556 131.186 307.564 131.187C307.579 131.187 307.602 131.188 307.632 131.19C307.693 131.192 307.782 131.196 307.899 131.201C308.133 131.21 308.478 131.222 308.92 131.236C309.805 131.263 311.08 131.295 312.647 131.314C315.779 131.352 320.077 131.337 324.735 131.126C329.393 130.915 334.42 130.509 339.009 129.761C343.587 129.015 347.774 127.924 350.723 126.321L350.246 125.442C347.447 126.963 343.395 128.033 338.848 128.774C334.311 129.513 329.326 129.917 324.69 130.127C320.056 130.337 315.778 130.351 312.659 130.314C311.099 130.295 309.83 130.263 308.951 130.236C308.512 130.223 308.17 130.21 307.938 130.201C307.822 130.197 307.734 130.193 307.675 130.191C307.645 130.189 307.623 130.188 307.608 130.188C307.6 130.187 307.595 130.187 307.591 130.187C307.589 130.187 307.588 130.187 307.587 130.187C307.587 130.187 307.586 130.187 307.586 130.187C307.586 130.187 307.586 130.187 307.563 130.686ZM350.723 126.321C362.364 119.996 369.007 107.384 366.554 96.896L365.58 97.1237C367.906 107.066 361.597 119.274 350.246 125.442L350.723 126.321Z" fill="#042537"/>
<path d="M293.5 74.4998C293.5 74.4998 274 57.9998 252 61.4998C230 64.9998 233.5 91.4998 233.5 91.4998" stroke="black"/>
<path d="M295.186 208C296.7 205 329.5 133 329.5 133C329.5 133 289.13 129.5 287.617 130C286.103 130.5 275.001 146.5 275.001 146.5C275.001 146.5 272.983 139.5 267.937 139.5C262.89 139.5 259.358 141.5 256.835 149C254.312 156.5 257.844 165 258.853 166.5C259.863 168 259.358 172.5 258.853 173.5C258.349 174.5 251.284 189 250.275 191.5C249.266 194 238.669 201.5 240.183 204.5C241.696 207.5 236.65 217 234.632 221C232.613 225 222.521 230.5 222.521 230.5C221.512 231.5 218.989 241 221.007 242.5C223.025 244 234.463 258.5 238.5 259.5C242.537 260.5 261.472 276.5 264.5 276.5C268.537 276.5 275.543 263.027 277.02 256.5C281.092 238.5 277.02 237 277.02 237C277.02 237 268.441 232.5 266.927 228.5C265.413 224.5 265.413 211 267.937 212.5C270.46 214 280.047 215 283.075 215C286.103 215 293.672 211 295.186 208Z" fill="#FFDAD2"/>
<path d="M267.5 212.5L257 210C257 210 255.429 222 259 228.5C262.571 235 277 237 277 237C277 237 267 229.5 266.5 227C266 224.5 265.851 221.89 266 219C266.188 215.348 267.5 212.5 267.5 212.5Z" fill="#E0C0BA"/>
<path d="M261 165C261 165 262 153 263 150.5C264 148 269 143 269 143C269 143 261 143 260 149C259 155 261 165 261 165Z" fill="#E0C0BA"/>
<path d="M232 206.5C240.5 211 264 173.5 259.5 166.5C255 159.5 257.5 148 258 147C258.5 145.999 262 139.5 267.5 140C273 140.5 275 147 275 147C275 147 284.5 130.5 287.5 130.5C290.5 130.5 322 133 327.5 133C333 133 353 126 360 118C367 110 361.5 95.4997 356.5 93.9997C351.5 92.4997 335 97.9997 330 95.9997C325 93.9997 328 87.4997 327.5 84.9997C327 82.4997 320.5 78.9997 316 78.9997C311.5 78.9997 299.5 81.9997 295 81.9997C290.5 81.9997 279.5 68.4997 259.5 70.4997C239.5 72.4997 238.5 85.9996 238.5 92.4997C238.5 98.9999 244.5 126.5 245.5 130.5C246.5 134.5 237 150.5 237 156.5C237 162.5 240 181.5 238.5 183.5C237 185.5 223.5 202 232 206.5Z" fill="#042537"/>
<path d="M315 132C315 132 334 127 340 123C340 123 351.781 112.253 352.5 106.5C353 102.5 351 94.0001 351 94.0001C360.849 91.702 363.793 101.329 363.5 109C363.347 113.012 361.687 116.126 361 117.5C359 121.5 351.5 126.5 351.5 126.5C343.5 132 333 135 315 132Z" fill="#093F5B"/>
<path d="M357.995 100.43C357.957 100.157 357.704 99.9664 357.43 100.005C357.157 100.043 356.966 100.296 357.005 100.57L357.995 100.43ZM307.563 127.686C307.459 128.175 307.459 128.175 307.46 128.175C307.46 128.176 307.461 128.176 307.462 128.176C307.464 128.176 307.466 128.177 307.47 128.178C307.477 128.179 307.488 128.181 307.501 128.184C307.529 128.19 307.569 128.198 307.623 128.209C307.729 128.231 307.886 128.262 308.091 128.301C308.499 128.378 309.096 128.487 309.853 128.611C311.367 128.859 313.522 129.17 316.09 129.42C321.223 129.921 328.025 130.182 334.666 129.213C341.299 128.245 347.836 126.042 352.369 121.556C356.927 117.047 359.388 110.304 357.995 100.43L357.005 100.57C358.362 110.196 355.956 116.601 351.666 120.846C347.352 125.114 341.061 127.269 334.522 128.223C327.991 129.176 321.278 128.921 316.187 128.425C313.644 128.177 311.511 127.87 310.015 127.624C309.267 127.502 308.678 127.394 308.278 127.318C308.077 127.28 307.924 127.25 307.821 127.229C307.769 127.218 307.73 127.21 307.705 127.205C307.692 127.202 307.682 127.2 307.676 127.199C307.673 127.198 307.67 127.198 307.669 127.198C307.668 127.197 307.668 127.197 307.667 127.197C307.667 127.197 307.667 127.197 307.563 127.686Z" fill="#042537"/>
<path d="M370 396.5L359 361.5L343 369.5L344.5 396.5H370Z" fill="#FA9688"/>
<path d="M157 252.5C161 250 221.5 229 222.5 230C223.5 231 219.5 239.5 221.5 242.5C222.418 243.877 229.779 251.021 239 258C249.869 266.226 262.877 274.418 264.5 275.5C276 273 277.5 237 277.5 237C277.5 237 312 254 317 258C322 262 331.5 273.5 331.5 273.5L364 356C364 356 359 363.5 354.5 367C350 370.5 343 371 343 371L345 396L127.5 396C127.5 396 124 361.5 123.5 346.5C123 331.5 128 294 130.5 282.5C133 271 153 255 157 252.5Z" fill="#0078E1"/>
<path d="M244.5 414C241.5 413 179 372 179 372L228.5 328.5L266.5 368.5L295.5 350L322 334.5L349 316C349 316 370.5 296 379.5 288.5C388.5 281 392 266.5 394 265C396 263.5 461 246 461 246C461 246 465 247 464.5 250C464 253 437.5 262 435.5 265C433.5 268 431 293.5 427.5 296.5C424 299.5 401 306 394 309.5C387 313 379.5 325 379.5 325L357.5 351L320.5 386.5C320.5 386.5 301 408 295.5 411C290 414 274 419 268.5 419.5C263 420 247.5 415 244.5 414Z" fill="#FFDAD2"/>
<path d="M204 365.5C203.5 362.5 222.5 338.5 222.5 338.5L179 372L211.5 393.5C211.5 393.5 241 412.5 244.5 414C248 415.5 265 420 269.5 420C274 420 291.5 414 296.5 411C301.5 408 321 386 321 386C321 386 277 414 269.5 413C262 412 251.5 403 248.5 401.5C245.5 400 242 393 239 392C236 391 223 386 220.5 384.5C218 383 204.5 368.5 204 365.5Z" fill="#E0C0BA"/>
<path d="M155.5 376C152.5 371.5 142 350 144 349.5C146 349 169 377 172.5 376.5C176 376 178.5 372 179.5 372.5C180.5 373 215 396 215 396H160C160 396 156 391.5 155.5 389.5C155 387.5 157 381.5 155.5 376Z" fill="#005596"/>
<path d="M232 328.5L214 308.5L201 292.5C201 292.5 210.5 308 212.5 310C214.5 312 228.5 329 228.5 329L202 352.5L174.5 375L174 376C174 376 200.5 358.5 204.5 355C208.5 351.5 232 328.5 232 328.5Z" fill="white"/>
<path d="M370.996 191.686L578.851 209.424C584.629 209.917 588.439 215.666 586.642 221.18L534.819 380.225C533.603 383.957 530.108 386.47 526.183 386.436L317.35 384.616C311.348 384.564 307.078 378.763 308.812 373.016L361.614 198.053C362.844 193.98 366.757 191.324 370.996 191.686Z" fill="white" fill-opacity="0.5" stroke="#0078E1" stroke-width="2"/>
<path d="M447 333.5L463.5 282.5L548 287L532 336L447 333.5Z" fill="#0078E1" fill-opacity="0.25"/>
<path d="M377.5 210.5L431.5 214.5L415.5 267.5L360 264.5L377.5 210.5Z" fill="#0078E1" fill-opacity="0.25"/>
<path d="M356.5 276.526L448.5 281.526L431.5 332.526L341 330.526L356.5 276.526Z" fill="#0078E1" fill-opacity="0.25"/>
<path d="M336 342L528.5 346.5L521.5 370L328.5 366L336 342Z" fill="#0078E1" fill-opacity="0.25"/>
<path d="M447.5 216L568 224L551 277L431 269L447.5 216Z" fill="#0078E1" fill-opacity="0.25"/>
<path d="M482.5 244C482.5 248.763 479.108 254.264 474.389 258.61C469.675 262.953 463.791 266 459 266C454.083 266 450.481 264.994 448.107 262.856C445.743 260.729 444.5 257.391 444.5 252.5C444.5 247.716 447.416 242.462 451.62 238.381C455.824 234.301 461.206 231.5 466 231.5C470.937 231.5 475.067 232.263 477.95 234.188C480.795 236.087 482.5 239.166 482.5 244Z" stroke="white"/>
<path d="M472.5 246.225C472.5 248.394 470.914 250.963 468.634 253.027C466.361 255.086 463.553 256.5 461.308 256.5C458.938 256.5 457.258 256.022 456.169 255.059C455.093 254.107 454.5 252.594 454.5 250.296C454.5 248.105 455.866 245.653 457.888 243.724C459.907 241.798 462.47 240.5 464.718 240.5C467.107 240.5 469.058 240.865 470.401 241.746C471.703 242.6 472.5 243.985 472.5 246.225Z" stroke="white"/>
<circle cx="601" cy="271" r="5" fill="#FFE400"/>
<circle cx="522" cy="156" r="8" fill="#FFE400"/>
<circle cx="522" cy="156" r="17" stroke="#FFE400" stroke-width="2"/>
<circle cx="667" cy="169" r="13" fill="#E8F3FD" fill-opacity="0.5"/>
<circle cx="597" cy="204" r="29" fill="#FFE400"/>
<path fill-rule="evenodd" clip-rule="evenodd" d="M601.863 175.406C602.994 177.856 604.81 181.434 606.946 184.64C608.121 186.403 609.402 188.068 610.729 189.374C612.048 190.671 613.455 191.657 614.888 191.987C617.511 192.593 619.66 192.888 621.223 193.011C622.005 193.072 622.643 193.091 623.123 193.083C623.362 193.079 623.566 193.068 623.732 193.052C623.774 193.048 623.815 193.043 623.856 193.038C623.724 192.712 623.585 192.39 623.441 192.071C623.344 192.077 623.232 192.081 623.106 192.083C622.664 192.09 622.058 192.074 621.302 192.014C619.79 191.895 617.689 191.608 615.112 191.013C613.945 190.743 612.698 189.908 611.43 188.661C610.171 187.421 608.933 185.818 607.779 184.085C605.861 181.208 604.2 178.014 603.075 175.637C602.674 175.552 602.27 175.475 601.863 175.406ZM584.921 177.628C585.703 178.91 586.796 180.228 587.895 181.35C588.564 182.034 589.228 182.637 589.812 183.107C590.367 183.554 590.827 183.862 591.141 184.014C593.086 184.272 596.244 184.848 599.521 185.756C602.832 186.672 606.31 187.939 608.777 189.584C611.809 191.605 613.234 193.019 614.279 194.456C614.724 195.067 615.097 195.679 615.489 196.322C615.551 196.424 615.613 196.526 615.676 196.63C616.142 197.39 616.664 198.218 617.4 199.2C618.53 200.706 620.321 201.872 622.05 202.685C623.736 203.478 625.293 203.905 626 203.996C626 203.998 626 203.999 626 204C626 204.182 625.998 204.364 625.995 204.545L625.945 204.997C625.123 204.906 623.419 204.434 621.625 203.59C619.829 202.745 617.87 201.494 616.6 199.8C615.836 198.782 615.296 197.923 614.824 197.152C614.759 197.046 614.695 196.942 614.633 196.84L614.632 196.839C614.239 196.194 613.889 195.62 613.471 195.044C612.516 193.731 611.191 192.395 608.223 190.416C605.89 188.861 602.535 187.628 599.254 186.719C595.982 185.814 592.83 185.243 590.935 184.996L590.863 184.986L590.797 184.957C590.361 184.763 589.795 184.378 589.185 183.886C588.566 183.388 587.873 182.758 587.18 182.05C586.03 180.875 584.856 179.464 584.015 178.062C584.314 177.912 584.616 177.767 584.921 177.628ZM623.636 215.487C619.035 212.325 617.208 210.371 615.127 207.984C614.961 207.794 614.794 207.602 614.624 207.405L614.624 207.405C612.605 205.079 610.156 202.255 604.828 197.623C600.178 193.58 596.511 192.322 593.767 192.501C591.01 192.681 589.289 194.304 588.553 195.776L588.52 195.841L588.508 195.912C588.082 198.294 587.925 201.951 588.857 205.188C589.793 208.442 591.864 211.353 595.922 211.994C599.662 212.584 604.658 214.315 609.349 216.226C613.76 218.022 617.865 219.963 620.336 221.221C620.536 220.95 620.731 220.676 620.922 220.398C618.443 219.129 614.244 217.14 609.726 215.299C605.025 213.385 599.938 211.616 596.078 211.006C592.536 210.447 590.69 207.942 589.818 204.912C588.951 201.898 589.081 198.447 589.479 196.161C590.095 194.981 591.514 193.65 593.833 193.499C596.206 193.344 599.622 194.421 604.172 198.377C609.447 202.964 611.862 205.748 613.869 208.061C614.04 208.258 614.207 208.451 614.373 208.641C616.52 211.104 618.426 213.134 623.217 216.412C623.362 216.107 623.502 215.798 623.636 215.487ZM612.035 228.803C611.253 227.991 609.927 226.784 608.392 225.681C606.619 224.409 604.489 223.218 602.555 223.003C602.026 222.944 601.55 223.017 601.137 223.223C600.726 223.429 600.412 223.751 600.179 224.134C599.723 224.884 599.551 225.909 599.525 226.963C599.477 228.93 599.937 231.249 600.412 232.801C600.749 232.762 601.084 232.717 601.417 232.666C600.948 231.19 600.479 228.886 600.525 226.987C600.549 225.991 600.714 225.179 601.034 224.654C601.188 224.399 601.371 224.224 601.585 224.118C601.797 224.011 602.074 223.956 602.445 223.997C604.111 224.182 606.064 225.241 607.808 226.494C609.19 227.485 610.39 228.562 611.145 229.323C611.445 229.155 611.742 228.981 612.035 228.803ZM590.516 232.272C590.668 229.812 590.676 225.95 590.221 222.227C589.986 220.298 589.624 218.392 589.088 216.732C588.555 215.081 587.835 213.628 586.854 212.646C584.581 210.374 582.398 208.819 580.679 208.158C579.828 207.831 579.02 207.695 578.353 207.877C577.649 208.069 577.189 208.59 577.022 209.345L576.999 209.396L576.876 209.674C576.769 209.916 576.615 210.263 576.426 210.687C576.049 211.536 575.533 212.692 574.981 213.92C574.088 215.91 573.103 218.08 572.453 219.449C572.661 219.779 572.875 220.103 573.095 220.423C573.729 219.121 574.876 216.595 575.894 214.33C576.446 213.1 576.962 211.943 577.34 211.094C577.529 210.669 577.683 210.321 577.79 210.08L577.914 209.8L577.946 209.727L577.954 209.709L577.957 209.704L577.957 209.703L577.957 209.702C577.957 209.702 577.957 209.702 577.5 209.5L577.957 209.702L577.98 209.652L577.99 209.598C578.083 209.134 578.306 208.926 578.616 208.842C578.98 208.742 579.547 208.794 580.321 209.092C581.852 209.681 583.919 211.126 586.146 213.354C586.965 214.173 587.624 215.453 588.137 217.04C588.647 218.618 588.998 220.456 589.229 222.348C589.664 225.91 589.667 229.612 589.529 232.029C589.856 232.115 590.185 232.197 590.516 232.272ZM568.005 204.526C568.306 204.726 568.665 204.938 569.066 205.136C569.997 205.595 571.199 206 572.5 206C573.244 206 573.919 205.69 574.504 205.24C575.089 204.792 575.61 204.185 576.061 203.535C576.962 202.236 577.63 200.69 577.974 199.658L577.978 199.648L577.981 199.637C578.426 198.079 578.31 196.949 578.227 196.133L578.227 196.133C578.211 195.977 578.196 195.833 578.186 195.699C578.157 195.284 578.181 195.019 578.298 194.785C578.417 194.549 578.669 194.272 579.252 193.932C580.721 193.075 581.681 192.769 582.355 192.701C583.007 192.635 583.432 192.786 583.877 192.964L583.965 193C584.397 193.174 584.916 193.384 585.605 193.293C586.323 193.197 587.159 192.788 588.307 191.895C588.834 191.485 589.171 190.989 589.317 190.423C589.461 189.863 589.408 189.279 589.231 188.703C588.882 187.567 588.019 186.368 586.966 185.235C585.125 183.253 582.566 181.329 580.596 180.082C580.298 180.287 580.005 180.497 579.715 180.712C581.668 181.909 584.356 183.895 586.234 185.915C587.256 187.015 587.993 188.079 588.275 188.997C588.414 189.448 588.434 189.839 588.348 190.173C588.264 190.5 588.066 190.815 587.693 191.105C586.591 191.962 585.927 192.241 585.473 192.301C585.051 192.358 584.756 192.239 584.295 192.054L584.248 192.036C583.756 191.839 583.149 191.615 582.254 191.706C581.381 191.794 580.279 192.175 578.748 193.068C578.081 193.457 577.646 193.857 577.405 194.336C577.163 194.817 577.156 195.305 577.189 195.77C577.2 195.929 577.216 196.091 577.233 196.258C577.314 197.064 577.408 197.997 577.022 199.352C576.698 200.321 576.069 201.769 575.239 202.965C574.823 203.565 574.37 204.083 573.896 204.447C573.422 204.811 572.956 205 572.5 205C571.401 205 570.353 204.655 569.509 204.239C568.818 203.899 568.291 203.524 568.009 203.287C568.003 203.524 568 203.762 568 204C568 204.176 568.002 204.351 568.005 204.526Z" fill="#0078E1"/>
<circle cx="405" cy="61" r="16" fill="#E8F3FD" fill-opacity="0.5"/>
<ellipse cx="277.5" cy="451.5" rx="45.5" ry="11.5" fill="white"/>
<path d="M277.5 465.5C289.162 465.5 299.839 464.307 307.703 462.318C311.609 461.33 315.018 460.096 317.535 458.591C319.83 457.218 322.5 454.931 322.5 451.5C322.5 448.069 319.83 445.782 317.535 444.409C315.018 442.904 311.609 441.67 307.703 440.682C299.839 438.693 289.162 437.5 277.5 437.5C265.838 437.5 255.161 438.693 247.297 440.682C243.391 441.67 239.982 442.904 237.465 444.409C235.17 445.782 232.5 448.069 232.5 451.5C232.5 454.931 235.17 457.218 237.465 458.591C239.982 460.096 243.391 461.33 247.297 462.318C255.161 464.307 265.838 465.5 277.5 465.5Z" stroke="#E8F2FE" stroke-width="7"/>
<path d="M282 457C270.5 458 266 455.5 264 451.5C262 447.5 295 435.5 298 435C301 434.5 323 441 323 444.5C323 448 300.5 455 300.5 455C300.5 455 293.5 456 282 457Z" fill="#EAF4FD" fill-opacity="0.5"/>
<path d="M306.5 415C306.5 419 291 451 291 451C291 451 288 456 277 455.5C266 455 264 451 264 451C264 451 247 419 247 415C247 411 265 409 276 409C287 409 306.5 411 306.5 415Z" fill="white"/>
<path d="M306 417C306.5 418.5 291 451 291 451C291 451 287.5 455.5 281 455.5C274.5 455.5 270 451 269 449.5C268 448 261 420 261 420C261 420 282 420.5 286.5 420.5C291 420.5 306 417 306 417Z" fill="#EAF4FD" fill-opacity="0.5"/>
<path d="M276.5 420.5C283.833 420.5 290.48 420.108 295.304 419.471C297.712 419.153 299.685 418.771 301.067 418.34C301.754 418.125 302.324 417.889 302.733 417.625C303.115 417.379 303.5 417.013 303.5 416.5C303.5 415.987 303.115 415.621 302.733 415.375C302.324 415.111 301.754 414.875 301.067 414.66C299.685 414.229 297.712 413.847 295.304 413.529C290.48 412.892 283.833 412.5 276.5 412.5C269.167 412.5 262.519 412.892 257.696 413.529C255.288 413.847 253.315 414.229 251.933 414.66C251.246 414.875 250.676 415.111 250.267 415.375C249.885 415.621 249.5 415.987 249.5 416.5C249.5 417.013 249.885 417.379 250.267 417.625C250.676 417.889 251.246 418.125 251.933 418.34C253.315 418.771 255.288 419.153 257.696 419.471C262.519 420.108 269.167 420.5 276.5 420.5Z" fill="#D18036" stroke="#FFE9BF"/>
<path d="M279.712 416.416C278.869 414.911 277.909 413.164 277.909 411.394C277.909 409.804 278.254 408.725 279.077 407.372C281.671 403.111 287.684 404.868 291.509 402.6C292.14 402.226 293.055 401.688 293.311 400.948C293.534 400.301 293.413 399.298 293.369 398.621C293.233 396.511 290.506 396.508 288.989 396.96C287.951 397.27 283.259 399.441 284.008 401.023C284.6 402.273 287.083 401.17 287.971 400.948" stroke="#FFF3EE" stroke-opacity="0.8" stroke-linecap="round" stroke-linejoin="round"/>
<path d="M274.005 417.317C273.116 414.928 272.068 412.041 272.57 409.441C273.157 406.404 273.97 403.522 276.041 401.165C277.159 399.892 278.685 398.483 278.886 396.718C279.047 395.298 278.833 394.045 278.21 392.755C276.878 389.996 275.188 387.46 273.738 384.763C272.252 381.998 273.753 379.057 276.341 377.738C278.361 376.709 282.951 376.016 284.142 378.672C284.909 380.384 286.36 383.514 283.992 384.654C282.993 385.135 281.714 385.398 280.613 385.088C280.199 384.972 279.851 384.737 279.645 384.354C279.549 384.176 279.561 383.944 279.561 384.279" stroke="#FFF3EE" stroke-opacity="0.8" stroke-linecap="round" stroke-linejoin="round"/>
<path d="M266.496 416.416C265.288 414.879 264.994 413.301 264.994 411.377C264.994 409.747 264.331 407.318 265.011 405.812C265.895 403.856 266.941 401.983 267.856 400.039C268.303 399.089 268.736 398.311 268.974 397.277C269.217 396.223 269.068 395.403 269.049 394.341C269.019 392.661 268.779 391.108 267.397 389.935C266.61 389.267 265.371 389.248 264.394 389.235C263.305 389.22 261.695 389.007 260.706 389.468C258.79 390.363 257.053 391.068 254.941 391.404C254.085 391.54 253.254 391.637 252.388 391.637C251.207 391.637 250.477 391.29 249.41 390.803C248.026 390.173 245.977 388.894 245.655 387.249C245.151 384.67 248.15 382.517 250.244 381.659C253.457 380.342 257.37 379.924 260.823 379.924C262.562 379.924 264.234 380.095 265.829 380.842C266.997 381.389 268.416 382.178 269.016 383.378C271.302 387.95 262 386.266 260.105 385.547C258.848 385.07 257.815 384.138 256.451 383.987C255.88 383.923 255.538 384.211 255.083 384.504C254.726 384.734 254.843 385.015 254.632 385.33" stroke="#FFF3EE" stroke-opacity="0.8" stroke-linecap="round" stroke-linejoin="round"/>
<path d="M65.5004 415C56.5004 392.5 57.9998 356.5 63.5004 354.5C63.5004 354.5 77.5009 351.5 97.5004 352C117.5 352.5 133.5 354.5 133.5 354.5C140.5 354.5 139.501 395.5 133.5 415C127.5 434.5 109.5 457 97.5004 455C85.5009 453 74.5004 437.5 65.5004 415Z" fill="#2E9D94"/>
<g filter="url(#filter0_f)">
<path d="M112.82 361.5C110.376 360 105 352 105 352C105 352 130.415 352.428 134.814 355C139.213 357.571 139.213 393.5 133.836 413.5C128.46 433.5 115.264 446 115.264 446C115.264 446 112.82 441 115.264 440C117.708 439 118.196 433 121.618 429.5C125.039 426 118.685 413.5 119.663 409C120.64 404.5 126.505 398 126.016 394C125.528 390 122.106 387.5 121.618 384C121.129 380.5 122.595 378 123.084 376C123.573 374 121.618 369.5 119.663 367C117.708 364.5 115.264 363 112.82 361.5Z" fill="#278B87"/>
</g>
<path d="M69.5002 330.5C75.5 333.5 85.5002 353 85.5002 353H123.5C123.5 353 149.5 345.5 158.5 333.5C167.5 321.5 172.5 301.5 169.5 288C149.5 299.5 135 301.5 135 301.5C135 301.5 135 288 134 282.5C133 277 131 270 126 264.5C121 259 102.5 243 97.0002 236.5C91.5003 230 85.5002 210 85.5002 210C85.5002 210 74.5 224.5 71.5002 240C69.5002 255 79.0002 278.5 79.0002 278.5C79.0002 278.5 45.0002 276.5 35.5002 272.5C26.0002 268.5 6.50016 249 6.50016 249C6.50016 249 5.00016 272 6.50016 278.5C8.00016 285 12.0003 296.5 24.5002 305.5C37 314.5 63.5003 327.5 69.5002 330.5Z" fill="#5CC3B1"/>
<path d="M101.5 352C103.195 348.368 107.335 341.728 113 337.293M167 295C160 325 131.5 330 120 333.5C117.483 334.266 115.133 335.623 113 337.293M113 337.293C120.167 332.029 134.5 318.5 134.5 306.5M84.5 352C81.3333 346.333 75.4 332.4 77 322C77.8958 316.177 79.2932 311.658 80.4733 307.5M78 275C79 277.167 81.7 283.6 82.5 292C83.0521 297.797 81.9278 302.375 80.4733 307.5M80.4733 307.5C78.9822 304.167 71.8 296.4 55 292C34 286.5 20 279 9 257.5M96 352C96.3333 348.333 97.7 339.8 100.5 335C104 329 113 317.5 114.5 303.5C115.725 292.065 116.5 283 108 276.5C103.217 272.843 97 264.5 95 262C93 259.5 81 237 84.5 219" stroke="#31988E" stroke-linecap="round"/>
<defs>
<filter id="filter0_f" x="101" y="348" width="41" height="102" filterUnits="userSpaceOnUse" color-interpolation-filters="sRGB">
<feFlood flood-opacity="0" result="BackgroundImageFix"/>
<feBlend mode="normal" in="SourceGraphic" in2="BackgroundImageFix" result="shape"/>
<feGaussianBlur stdDeviation="2" result="effect1_foregroundBlur"/>
</filter>
</defs>
</svg>
