<svg width="225" height="226" viewBox="0 0 225 226" fill="none" xmlns="http://www.w3.org/2000/svg">
<path fill-rule="evenodd" clip-rule="evenodd" d="M155.106 36.1383C155.055 33.4637 153.929 30.7653 151.48 28.7297L120.805 3.2334C115.618 -1.07781 108.094 -1.07779 102.907 3.2334L72.2314 28.7297C70.0036 30.5815 68.8706 32.9817 68.6456 35.4135C68.581 35.3935 68.5157 35.3746 68.4498 35.3569L6.45433 18.7453C3.72299 18.0135 0.915508 19.6344 0.183647 22.3657C-0.549254 25.1009 1.07727 27.9116 3.81396 28.639L71.0064 46.4984H80.8556V53.9984H72.0064L3.7736 72.91C1.05079 73.6647 -0.554656 76.4732 0.176625 79.2023C0.912363 81.9482 3.73472 83.5776 6.48053 82.8419L72.0064 65.2843V76.9984C72.0064 81.4543 74.9207 85.2295 78.9473 86.5218L51.6255 212.885C50.2785 219.115 55.0257 224.998 61.3997 224.998H84.6185L84.7585 225.3L85.4073 224.998H162.613C168.987 224.998 173.734 219.115 172.387 212.885L145.066 86.5218C149.092 85.2295 152.006 81.4543 152.006 76.9984V65.0239L217.956 82.695C220.594 83.4019 223.306 81.8362 224.013 79.1979C224.714 76.5795 223.177 73.8843 220.566 73.1548L152.006 53.9984H142.856V46.4984H153.007L220.372 28.6364C223.109 27.9106 224.737 25.0998 224.004 22.3642C223.273 19.6337 220.466 18.0133 217.735 18.7449L157.884 34.782C156.838 35.0622 155.905 35.5309 155.106 36.1383ZM108.66 10.1548L77.9842 35.6511C77.7307 35.8618 77.619 36.1436 77.6215 36.4202H146.09C146.093 36.1436 145.981 35.8618 145.727 35.6511L115.052 10.1548C113.199 8.61507 110.512 8.61507 108.66 10.1548ZM132.856 53.9984H90.8556V46.4984H132.856V53.9984ZM82.0064 63.9984H142.006V76.9984H82.0064V63.9984ZM162.613 214.998H106.934L157.531 191.494L162.613 214.998ZM151.134 161.909L155.31 181.223L82.6039 214.998H61.3997L64.1407 202.321L151.134 161.909ZM79.8534 129.65L74.49 154.456L142.674 122.781L138.29 102.504L79.8534 129.65ZM66.8573 189.757L71.7734 167.02L144.895 133.052L148.914 151.638L66.8573 189.757ZM82.57 117.086L136.069 92.2331L134.938 86.9984H89.0753L82.57 117.086Z" fill="#FFC107"/>
</svg>
