<svg width="1500" height="2325" viewBox="0 0 1500 2325" fill="none" xmlns="http://www.w3.org/2000/svg">
<path d="M540.276 17.1874L732.857 210.415L574.992 368.825L744.362 538.77" stroke="#007BFF" stroke-width="33" stroke-linecap="round" stroke-linejoin="round"/>
<path d="M982.747 381.307L1317.21 45.6983" stroke="#007BFF" stroke-width="33" stroke-linecap="round" stroke-linejoin="round"/>
<path d="M1459.92 650.012L1283.57 473.058" stroke="#007BFF" stroke-width="33" stroke-linecap="round" stroke-linejoin="round"/>
<path d="M1151.49 2307.81L975.135 2130.86" stroke="#007BFF" stroke-width="33" stroke-linecap="round" stroke-linejoin="round"/>
<path d="M367.072 1873.86L109.483 1615.4" stroke="#007BFF" stroke-width="33" stroke-linecap="round" stroke-linejoin="round"/>
<path d="M759.572 1998.82L952.153 1805.59L1110.02 1963.99L1279.39 1794.04" stroke="#007BFF" stroke-width="33" stroke-linecap="round" stroke-linejoin="round"/>
<path d="M757.562 1514.31L423.103 1178.71" stroke="#007BFF" stroke-width="33" stroke-linecap="round" stroke-linejoin="round"/>
<path d="M1482.83 1372.38L1217.08 1106.63" stroke="#007BFF" stroke-width="33" stroke-linecap="round" stroke-linejoin="round"/>
<path d="M271.988 217.754L108.98 381.307" stroke="#007BFF" stroke-width="33" stroke-linecap="round" stroke-linejoin="round"/>
<path d="M283.55 2070.53L120.543 2234.1" stroke="#007BFF" stroke-width="33" stroke-linecap="round" stroke-linejoin="round"/>
<path d="M378.519 832.193L16.8125 1195.14" stroke="#007BFF" stroke-width="33" stroke-linecap="round" stroke-linejoin="round"/>
<path d="M1063.31 677.885L1063.31 889.44L890.464 889.44L890.464 1075.5L699.923 1075.5" stroke="#007BFF" stroke-width="33" stroke-linecap="round" stroke-linejoin="round"/>
<path d="M1143.11 1358.04L966.747 1535" stroke="#007BFF" stroke-width="33" stroke-linecap="round" stroke-linejoin="round"/>
<path d="M567.749 2121.06C533.475 2119.67 504.568 2146.43 503.181 2180.81C501.795 2215.19 528.453 2244.19 562.726 2245.57C596.998 2246.95 625.905 2220.2 627.292 2185.82C628.68 2151.43 602.02 2122.44 567.749 2121.06Z" fill="#007BFF"/>
<path d="M337.24 561.535C337.24 527.121 309.434 499.228 275.134 499.228C240.833 499.228 213.027 527.121 213.027 561.535C213.027 595.949 240.833 623.842 275.134 623.842C309.434 623.842 337.24 595.949 337.24 561.535Z" fill="#007BFF"/>
<path d="M1495.81 2107.96C1495.81 2073.55 1468.01 2045.66 1433.71 2045.66C1399.41 2045.66 1371.6 2073.55 1371.6 2107.96C1371.6 2142.38 1399.41 2170.27 1433.71 2170.27C1468.01 2170.27 1495.81 2142.38 1495.81 2107.96Z" fill="#007BFF"/>
<path d="M1412.06 861.51C1412.06 827.096 1384.26 799.202 1349.95 799.202C1315.65 799.202 1287.85 827.096 1287.85 861.51C1287.85 895.924 1315.65 923.817 1349.95 923.817C1384.26 923.817 1412.06 895.924 1412.06 861.51Z" fill="#007BFF"/>
</svg>
